<?xml version="1.0" encoding="UTF-8"?>
<svg xmlns="http://www.w3.org/2000/svg" viewBox="0 0 340 340" width="340" height="340" role="img" data-plot-renderer="standard" data-chart-text-color="#23242A" aria-label="Enrichment dot scientific figure preview" style="font-family:Arial, &quot;Helvetica Neue&quot;, &quot;PingFang SC&quot;, &quot;Microsoft YaHei&quot;, sans-serif;background:white;max-width:100%;height:auto" font-family="Arial, &quot;Helvetica Neue&quot;, &quot;PingFang SC&quot;, &quot;Microsoft YaHei&quot;, sans-serif"><title>Enrichment dot figure</title><desc>Term, ratio, count, and FDR encoded independently and legibly.<!-- --> Generated in LabNest Visualization Studio.</desc><rect width="340" height="340" fill="#FFFFFF"/><defs><clipPath id="plot-area-enrichment"><rect x="124" y="24" width="94" height="258"/></clipPath></defs><style>[data-plot-data] path:not([data-no-clip]),[data-plot-data] circle:not([data-no-clip]),[data-plot-data] rect:not([data-no-clip]),[data-plot-data] line:not([data-no-clip]),[data-plot-data] polyline:not([data-no-clip]),[data-plot-data] polygon:not([data-no-clip]),[data-plot-data] text[data-plot-label]:not([data-no-clip]){clip-path:url(#plot-area-enrichment)}</style><g><line data-grid-axis="y" x1="124" x2="218" y1="263.57142857142856" y2="263.57142857142856" stroke="#E3E7E6" stroke-width="0.8"/><line data-grid-axis="y" x1="124" x2="218" y1="226.71428571428572" y2="226.71428571428572" stroke="#E3E7E6" stroke-width="0.8"/><line data-grid-axis="y" x1="124" x2="218" y1="189.85714285714286" y2="189.85714285714286" stroke="#E3E7E6" stroke-width="0.8"/><line data-grid-axis="y" x1="124" x2="218" y1="153" y2="153" stroke="#E3E7E6" stroke-width="0.8"/><line data-grid-axis="y" x1="124" x2="218" y1="116.14285714285717" y2="116.14285714285717" stroke="#E3E7E6" stroke-width="0.8"/><line data-grid-axis="y" x1="124" x2="218" y1="79.2857142857143" y2="79.2857142857143" stroke="#E3E7E6" stroke-width="0.8"/><line data-grid-axis="y" x1="124" x2="218" y1="42.428571428571445" y2="42.428571428571445" stroke="#E3E7E6" stroke-width="0.8"/><line x1="124" x2="218" y1="282" y2="282" stroke="#23242A" stroke-width="1.4"/><line x1="124" x2="124" y1="24" y2="282" stroke="#23242A" stroke-width="1.4"/><g><line x1="124" x2="124" y1="282" y2="287" stroke="#23242A" stroke-width="1.4"/><text data-axis-tick="x" x="124" y="301" text-anchor="middle" fill="#23242A" font-size="11">0</text></g><g><line x1="147.5" x2="147.5" y1="282" y2="287" stroke="#23242A" stroke-width="1.4"/><text data-axis-tick="x" x="147.5" y="301" text-anchor="middle" fill="#23242A" font-size="11">0.1</text></g><g><line x1="171" x2="171" y1="282" y2="287" stroke="#23242A" stroke-width="1.4"/><text data-axis-tick="x" x="171" y="301" text-anchor="middle" fill="#23242A" font-size="11">0.19</text></g><g><line x1="194.5" x2="194.5" y1="282" y2="287" stroke="#23242A" stroke-width="1.4"/><text data-axis-tick="x" x="194.5" y="301" text-anchor="middle" fill="#23242A" font-size="11">0.29</text></g><g><line x1="218" x2="218" y1="282" y2="287" stroke="#23242A" stroke-width="1.4"/><text data-axis-tick="x" x="218" y="301" text-anchor="middle" fill="#23242A" font-size="11">0.39</text></g><text data-axis-label="x" x="171" y="327" text-anchor="middle" fill="#23242A" font-size="14" font-weight="600">Gene ratio</text><text data-axis-label="y" transform="translate(18 153) rotate(-90)" text-anchor="middle" fill="#23242A" font-size="14" font-weight="600">Enriched term</text></g><g data-plot-data="true"><circle cx="167.51851851851853" cy="263.57142857142856" r="6.7407407407407405" fill="#91b0b4" fill-opacity="0.82" stroke="#23242A" stroke-width="0.45"/><text x="115" y="267.31142857142856" text-anchor="end" fill="#23242A" font-size="11">Focal adhesion</text></g><g data-plot-data="true"><circle cx="177.18930041152265" cy="226.71428571428572" r="7.460905349794238" fill="#799ea3" fill-opacity="0.82" stroke="#23242A" stroke-width="0.45"/><text x="115" y="230.45428571428573" text-anchor="end" fill="#23242A" font-size="11">p53 signaling</text></g><g data-plot-data="true"><circle cx="182.02469135802468" cy="189.85714285714286" r="7.820987654320987" fill="#689298" fill-opacity="0.82" stroke="#23242A" stroke-width="0.45"/><text x="115" y="193.59714285714287" text-anchor="end" fill="#23242A" font-size="11">Mitochondrial matrix</text></g><g data-plot-data="true"><circle cx="191.69547325102883" cy="153" r="8.541152263374485" fill="#648f95" fill-opacity="0.82" stroke="#23242A" stroke-width="0.45"/><text x="115" y="156.74" text-anchor="end" fill="#23242A" font-size="11">DNA binding</text></g><g data-plot-data="true"><circle cx="196.53086419753086" cy="116.14285714285717" r="8.901234567901234" fill="#538289" fill-opacity="0.82" stroke="#23242A" stroke-width="0.45"/><text x="115" y="119.88285714285716" text-anchor="end" fill="#23242A" font-size="11">DNA repair</text></g><g data-plot-data="true"><circle cx="201.36625514403292" cy="79.2857142857143" r="9.261316872427983" fill="#497b83" fill-opacity="0.82" stroke="#23242A" stroke-width="0.45"/><text x="115" y="83.0257142857143" text-anchor="end" fill="#23242A" font-size="11">PI3K-AKT signaling</text></g><g data-plot-data="true"><circle cx="211.03703703703704" cy="42.428571428571445" r="9.981481481481481" fill="#336a73" fill-opacity="0.82" stroke="#23242A" stroke-width="0.45"/><text x="115" y="46.16857142857145" text-anchor="end" fill="#23242A" font-size="11">Cell cycle</text></g><g transform="translate(238 28)"><text x="0" y="0" fill="#23242A" font-size="11" font-weight="700">Adjusted P</text><rect x="0" y="10" width="12" height="3.4" fill="#245f69"/><rect x="0" y="13.1" width="12" height="3.4" fill="#2a646d"/><rect x="0" y="16.2" width="12" height="3.4" fill="#316972"/><rect x="0" y="19.3" width="12" height="3.4" fill="#376d76"/><rect x="0" y="22.4" width="12" height="3.4" fill="#3e727b"/><rect x="0" y="25.5" width="12" height="3.4" fill="#44777f"/><rect x="0" y="28.6" width="12" height="3.4" fill="#4b7c84"/><rect x="0" y="31.7" width="12" height="3.4" fill="#518188"/><rect x="0" y="34.8" width="12" height="3.4" fill="#58858d"/><rect x="0" y="37.900000000000006" width="12" height="3.4" fill="#5e8a91"/><rect x="0" y="41" width="12" height="3.4" fill="#658f96"/><rect x="0" y="44.1" width="12" height="3.4" fill="#6b949a"/><rect x="0" y="47.2" width="12" height="3.4" fill="#72999e"/><rect x="0" y="50.300000000000004" width="12" height="3.4" fill="#789da3"/><rect x="0" y="53.4" width="12" height="3.4" fill="#7fa2a7"/><rect x="0" y="56.5" width="12" height="3.4" fill="#85a7ac"/><rect x="0" y="59.6" width="12" height="3.4" fill="#8cacb0"/><rect x="0" y="62.7" width="12" height="3.4" fill="#92b1b5"/><rect x="0" y="65.80000000000001" width="12" height="3.4" fill="#99b6b9"/><rect x="0" y="68.9" width="12" height="3.4" fill="#9fbabe"/><rect x="0" y="72" width="12" height="3.4" fill="#a6bfc2"/><rect x="0" y="75.10000000000001" width="12" height="3.4" fill="#acc4c6"/><rect x="0" y="78.2" width="12" height="3.4" fill="#b3c9cb"/><rect x="0" y="81.3" width="12" height="3.4" fill="#b9cecf"/><rect x="0" y="84.4" width="12" height="3.4" fill="#c0d2d4"/><rect x="0" y="87.5" width="12" height="3.4" fill="#c6d7d8"/><rect x="0" y="90.60000000000001" width="12" height="3.4" fill="#cddcdd"/><rect x="0" y="93.7" width="12" height="3.4" fill="#d3e1e1"/><rect x="0" y="96.8" width="12" height="3.4" fill="#dae6e6"/><rect x="0" y="99.9" width="12" height="3.4" fill="#e0eaea"/><rect x="0" y="103" width="12" height="3.4" fill="#e7efef"/><rect x="0" y="106.10000000000001" width="12" height="3.4" fill="#edf4f3"/><text x="18" y="18" fill="#23242A" font-size="11">lower</text><text x="18" y="109" fill="#23242A" font-size="11">higher</text><text x="0" y="137" fill="#23242A" font-size="11" font-weight="700">Gene count</text><g transform="translate(3.5 154)"><circle cx="0" cy="0" r="3.5" fill="none" stroke="#23242A"/><text x="17" y="4" fill="#23242A" font-size="11">0</text></g><g transform="translate(7 181)"><circle cx="0" cy="0" r="7" fill="none" stroke="#23242A"/><text x="17" y="4" fill="#23242A" font-size="11">9.72</text></g><g transform="translate(10.5 208)"><circle cx="0" cy="0" r="10.5" fill="none" stroke="#23242A"/><text x="17" y="4" fill="#23242A" font-size="11">19.4</text></g><text x="0" y="246" fill="#23242A" font-size="11">KEGG · CC · MF · BP</text></g></svg>